<?xml version="1.0" standalone="no"?>
<!DOCTYPE svg PUBLIC "-//W3C//DTD SVG 20010904//EN"
 "http://www.w3.org/TR/2001/REC-SVG-20010904/DTD/svg10.dtd">
<svg version="1.0" xmlns="http://www.w3.org/2000/svg"
 width="1200.000000pt" height="1200.000000pt" viewBox="0 0 1200.000000 1200.000000"
 preserveAspectRatio="xMidYMid meet">
<metadata>
Created by potrace 1.14, written by Peter Selinger 2001-2017
</metadata>
<g transform="translate(0.000000,1200.000000) scale(0.100000,-0.100000)"
fill="#000000" stroke="none">
<path d="M2735 6003 c0 -5992 0 -5998 20 -5997 23 1 105 11 190 23 33 5 67 9
75 9 8 0 47 5 86 11 40 6 96 13 125 16 30 3 70 7 89 10 37 5 105 12 179 20 24
2 60 7 80 9 20 3 68 8 106 11 39 3 81 8 95 10 14 2 61 6 105 10 44 3 96 7 115
10 19 2 71 7 115 10 44 3 103 8 130 11 28 2 82 6 120 9 39 2 104 7 145 10 181
12 422 27 498 30 34 1 65 4 67 7 3 2 5 369 4 814 0 445 0 818 0 829 1 95 2
473 0 481 -1 5 -1 11 0 14 1 3 3 685 3 1515 1 831 4 1501 8 1490 16 -42 61
-168 130 -360 39 -110 80 -222 91 -249 10 -27 19 -55 19 -62 0 -8 4 -22 9 -32
9 -16 23 -51 25 -62 1 -3 7 -18 13 -35 7 -16 48 -133 93 -260 44 -126 85 -239
90 -250 5 -11 19 -49 31 -85 12 -36 33 -94 46 -130 14 -36 26 -72 28 -80 2 -8
18 -53 35 -100 18 -47 47 -128 65 -180 19 -52 63 -178 100 -280 37 -102 68
-189 69 -195 4 -12 15 -43 26 -70 5 -11 27 -74 50 -140 23 -66 46 -133 53
-150 6 -16 12 -34 14 -40 1 -5 35 -102 76 -215 41 -113 83 -232 95 -265 12
-33 42 -118 67 -190 63 -177 79 -222 99 -280 9 -27 20 -57 23 -65 3 -8 7 -19
9 -25 1 -5 32 -93 69 -195 37 -102 77 -217 90 -255 13 -39 28 -81 34 -95 20
-47 271 -768 271 -779 0 -22 6 -23 225 -36 61 -4 139 -8 175 -11 36 -2 106 -6
155 -9 50 -3 117 -7 150 -10 33 -3 89 -7 125 -10 36 -2 90 -6 120 -9 54 -6
111 -11 240 -21 36 -3 81 -8 100 -10 19 -3 64 -7 100 -10 36 -3 88 -8 115 -11
28 -4 64 -8 80 -9 49 -4 155 -16 178 -21 12 -2 49 -6 82 -9 33 -3 76 -7 95
-10 42 -7 88 -13 155 -20 28 -3 61 -8 75 -10 14 -2 50 -7 80 -10 30 -3 67 -8
81 -11 l27 -4 0 6000 0 6000 -1174 0 -1174 0 0 -137 c0 -76 0 -385 0 -688 1
-302 1 -556 1 -562 0 -7 0 -42 0 -78 0 -36 0 -73 -1 -82 0 -10 0 -47 1 -83 0
-36 0 -71 0 -77 -1 -28 0 -144 0 -155 2 -75 -3 -3299 -5 -3296 -2 2 -22 59
-45 128 -24 69 -48 131 -53 138 -6 6 -8 12 -4 12 3 0 1 12 -5 28 -6 15 -24 63
-39 107 -16 44 -52 145 -80 225 -29 80 -78 219 -110 310 -32 91 -77 217 -100
280 -23 63 -43 122 -45 130 -2 8 -11 33 -19 55 -33 91 -98 272 -106 295 -4 14
-31 90 -60 170 -29 80 -59 165 -67 190 -8 25 -21 59 -28 75 -7 17 -18 46 -23
65 -6 19 -29 87 -52 150 -42 114 -100 277 -165 460 -18 52 -52 147 -75 210
-22 63 -43 122 -45 130 -2 8 -32 92 -65 185 -34 94 -75 208 -91 255 -17 47
-34 94 -39 105 -5 11 -15 40 -23 65 -8 25 -38 110 -67 190 -28 80 -76 213
-105 295 -29 83 -72 202 -94 265 -48 134 -100 279 -169 477 -28 79 -53 147
-57 153 -4 7 -394 10 -1178 10 l-1173 0 1 -5997z"/>
</g>
</svg>
